<mxfile host="app.diagrams.net" modified="2023-11-03T19:52:47.746Z" agent="Mozilla/5.0 (X11; Linux x86_64) AppleWebKit/537.36 (KHTML, like Gecko) Chrome/118.0.0.0 Safari/537.36" etag="pImxq2NiaXgLXpjpRTo5" version="22.0.8" type="device">
  <diagram name="Page-1" id="BX6H4nkA_NfjKYrf1cF8">
    <mxGraphModel dx="868" dy="494" grid="1" gridSize="10" guides="1" tooltips="1" connect="1" arrows="1" fold="1" page="1" pageScale="1" pageWidth="850" pageHeight="1100" math="0" shadow="0">
      <root>
        <mxCell id="0" />
        <mxCell id="1" parent="0" />
        <mxCell id="rbS0wrknZqXFer-qJ8yu-1" value="Atleta" style="swimlane;fontStyle=1;align=center;verticalAlign=top;childLayout=stackLayout;horizontal=1;startSize=26;horizontalStack=0;resizeParent=1;resizeParentMax=0;resizeLast=0;collapsible=1;marginBottom=0;whiteSpace=wrap;html=1;" vertex="1" parent="1">
          <mxGeometry x="80" y="160" width="200" height="250" as="geometry" />
        </mxCell>
        <mxCell id="rbS0wrknZqXFer-qJ8yu-2" value="- id: int&lt;br&gt;- name: String&lt;br&gt;- time: double&lt;br&gt;&lt;u&gt;- contador: int =0 &lt;br&gt;- seleccion: String = Colombia&lt;br&gt;- tiempoEquipo: double = 0.0&lt;/u&gt;" style="text;strokeColor=none;fillColor=none;align=left;verticalAlign=top;spacingLeft=4;spacingRight=4;overflow=hidden;rotatable=0;points=[[0,0.5],[1,0.5]];portConstraint=eastwest;whiteSpace=wrap;html=1;" vertex="1" parent="rbS0wrknZqXFer-qJ8yu-1">
          <mxGeometry y="26" width="200" height="114" as="geometry" />
        </mxCell>
        <mxCell id="rbS0wrknZqXFer-qJ8yu-3" value="" style="line;strokeWidth=1;fillColor=none;align=left;verticalAlign=middle;spacingTop=-1;spacingLeft=3;spacingRight=3;rotatable=0;labelPosition=right;points=[];portConstraint=eastwest;strokeColor=inherit;" vertex="1" parent="rbS0wrknZqXFer-qJ8yu-1">
          <mxGeometry y="140" width="200" height="8" as="geometry" />
        </mxCell>
        <mxCell id="rbS0wrknZqXFer-qJ8yu-4" value="+ constructor()&lt;br&gt;+ correr400m()&lt;br&gt;+ toString()&lt;br&gt;&lt;u&gt;+ getSeleccion(): String&lt;br&gt;+ getTiempoTotal(): double&lt;/u&gt;" style="text;strokeColor=none;fillColor=none;align=left;verticalAlign=top;spacingLeft=4;spacingRight=4;overflow=hidden;rotatable=0;points=[[0,0.5],[1,0.5]];portConstraint=eastwest;whiteSpace=wrap;html=1;" vertex="1" parent="rbS0wrknZqXFer-qJ8yu-1">
          <mxGeometry y="148" width="200" height="102" as="geometry" />
        </mxCell>
      </root>
    </mxGraphModel>
  </diagram>
</mxfile>
